<svg width="143" height="25" viewBox="0 0 143 25" fill="none" xmlns="http://www.w3.org/2000/svg">
<path d="M29.8936 1.54817H40.2397V5.06078H36.8293V20.2669H33.2163V5.06078H29.8954V1.54817H29.8936Z" fill="#3F4249"/>
<path d="M52.5193 6.42275H55.9936V20.2669H52.5193V18.8027C51.842 19.4471 51.161 19.9127 50.48 20.1957C49.7972 20.4805 49.0578 20.6211 48.2618 20.6211C46.4745 20.6211 44.9281 19.9273 43.6228 18.5398C42.3174 17.1523 41.6656 15.4288 41.6656 13.3676C41.6656 11.3064 42.2973 9.47893 43.5589 8.1115C44.8222 6.74589 46.3558 6.06309 48.1596 6.06309C48.9903 6.06309 49.7698 6.2201 50.4983 6.53411C51.2267 6.84813 51.9004 7.31915 52.5193 7.94719V6.42092V6.42275ZM48.8661 9.27263C47.7926 9.27263 46.8999 9.65237 46.1897 10.4119C45.4795 11.1713 45.1235 12.1444 45.1235 13.3329C45.1235 14.5215 45.485 15.5128 46.2079 16.2851C46.9309 17.0573 47.82 17.4425 48.8771 17.4425C49.9342 17.4425 50.8726 17.0628 51.5919 16.3033C52.3112 15.5438 52.669 14.5488 52.669 13.3202C52.669 12.0915 52.3094 11.1403 51.5919 10.3936C50.8726 9.6469 49.9652 9.27446 48.8661 9.27446V9.27263Z" fill="#3F4249"/>
<path d="M59.1227 1.07716H62.597V20.2669H59.1227V1.07716Z" fill="#3F4249"/>
<path d="M65.3703 1.07716H68.8445V20.2669H65.3703V1.07716Z" fill="#3F4249"/>
<path d="M85.8706 14.3498H74.7103C74.8709 15.3339 75.3018 16.1171 76.001 16.6977C76.7003 17.2782 77.593 17.5685 78.6793 17.5685C79.9773 17.5685 81.0928 17.1139 82.0258 16.2066L84.9523 17.5813C84.2221 18.6165 83.3494 19.3814 82.3306 19.878C81.3119 20.3746 80.1033 20.6229 78.7048 20.6229C76.5323 20.6229 74.765 19.9382 73.3976 18.5672C72.032 17.1979 71.3492 15.4818 71.3492 13.4206C71.3492 11.3594 72.0302 9.55378 73.3921 8.15896C74.7541 6.76415 76.4611 6.06491 78.5131 6.06491C80.693 6.06491 82.4657 6.76232 83.8314 8.15896C85.197 9.55378 85.8798 11.3977 85.8798 13.6889L85.867 14.3498H85.8706ZM82.3964 11.6132C82.1663 10.8409 81.7136 10.2129 81.0381 9.72905C80.3626 9.24524 79.5793 9.00425 78.6866 9.00425C77.7172 9.00425 76.8682 9.27628 76.1379 9.81851C75.6797 10.1581 75.2543 10.7569 74.8636 11.6132H82.3964Z" fill="#3F4249"/>
<path d="M89.1166 1.54817H98.4057V5.02244H92.6548V8.42003H98.4057V11.8432H92.6548V20.2669H89.1166V1.54817Z" fill="#3F4249"/>
<path d="M100.81 1.07716H104.285V20.2669H100.81V1.07716Z" fill="#3F4249"/>
<path d="M113.942 6.06674C115.25 6.06674 116.476 6.39354 117.627 7.04713C118.777 7.70072 119.673 8.58618 120.318 9.70715C120.962 10.8263 121.285 12.0349 121.285 13.3348C121.285 14.6347 120.96 15.8633 120.312 16.9989C119.664 18.1363 118.779 19.0236 117.66 19.6644C116.54 20.3052 115.306 20.6247 113.957 20.6247C111.973 20.6247 110.276 19.9182 108.873 18.5069C107.469 17.0938 106.766 15.3795 106.766 13.3603C106.766 11.1969 107.558 9.39496 109.145 7.95267C110.536 6.6966 112.135 6.06857 113.942 6.06857V6.06674ZM114.001 9.33653C112.922 9.33653 112.024 9.71262 111.304 10.463C110.587 11.2133 110.227 12.1755 110.227 13.3457C110.227 14.516 110.581 15.5256 111.292 16.2723C112.002 17.019 112.9 17.3914 113.988 17.3914C115.076 17.3914 115.98 17.0135 116.703 16.2595C117.426 15.5055 117.785 14.5324 117.785 13.3457C117.785 12.159 117.431 11.1933 116.721 10.4502C116.011 9.70715 115.104 9.33653 113.999 9.33653H114.001Z" fill="#3F4249"/>
<path d="M122.589 6.42274H125.99L128.774 14.2987L131.77 6.42274H133.85L136.791 14.2111L139.579 6.42274H143.002L137.95 20.2669H135.748L132.796 12.3781L129.755 20.2669H127.578L122.591 6.42274H122.589Z" fill="#3F4249"/>
<path d="M9.48806 0V10.8902H6.81526C3.05801 10.8902 0 13.9482 0 17.7054V18.003C0 21.7621 3.05801 24.8183 6.81526 24.8183H7.11285C10.8719 24.8183 13.9281 21.7603 13.9281 18.003V17.8077H9.48623V18.003C9.48623 19.312 8.42003 20.3782 7.11102 20.3782H6.81344C5.50442 20.3782 4.43823 19.312 4.43823 18.003V17.7054C4.43823 16.3964 5.50442 15.3302 6.81344 15.3302H16.1335C17.7292 15.3302 19.0236 14.0358 19.0236 12.4402V10.8884H13.9281V4.44188H22.4102C24.0059 4.44188 25.3003 3.14747 25.3003 1.55183V0H9.48806Z" fill="#01D2AB"/>
<path d="M7.17858 1.52588e-05H14.222V4.44189H3.46332V3.71527C3.46332 1.66504 5.12834 1.52588e-05 7.17858 1.52588e-05Z" fill="#01D2AB"/>
</svg>
